PathFileType	4	(X/Y/Z)	C:\Users\Admin\Desktop\Capture Files\05302019 Reflex Trials\StaticTrial_1-Unnamed.trc
DataRate	CameraRate	NumFrames	NumMarkers	Units	OrigDataRate	OrigDataStartFrame	OrigNumFrames
300.00	300.00	      29	0	mm	300.00	143	      1137
Frame#	Time	
		

143	0.473	579.35492	-624.09821	918.13550				498.06470	-499.34515	874.64075	896.61060	-725.03308	1114.77576	432.08365	-312.80258	455.63879	180.00443	-512.65704	611.02802	158.07506	-529.09106	409.40723	822.81128	-765.83234	1020.46704	290.22385	-498.71158	730.16260				182.85767	-589.03491	725.00543	370.87122	-425.39993	715.04321	499.87317	-364.83411	739.24976				428.54828	-327.09512	639.90045	
144	0.477	579.37317	-624.11884	918.12183				498.03693	-499.31958	874.64880	896.62787	-725.08417	1114.79248	432.08463	-312.81418	455.65091	179.99548	-512.66077	611.03210	158.08443	-529.09814	409.42938	822.80109	-765.81000	1020.45355	290.21994	-498.70389	730.15002				182.86432	-589.04205	725.00159	370.89566	-425.42111	715.04144	499.86163	-364.82596	739.24567				428.56079	-327.09036	639.89740	
145	0.480	579.36298	-624.09381	918.12708				498.05215	-499.31506	874.64532	896.57031	-725.04016	1114.76074	432.06445	-312.79926	455.62668	180.00906	-512.68604	611.02209	158.10507	-529.11981	409.41989	822.77533	-765.86359	1020.43073	290.22696	-498.72351	730.14435				182.86461	-589.02637	725.01160	370.87408	-425.41397	715.03949	499.85135	-364.82397	739.24939				428.53198	-327.11243	639.90259	
146	0.483	579.38727	-624.11603	918.11603				498.06052	-499.33545	874.63910	896.56464	-725.05872	1114.77502	432.05154	-312.78516	455.62292	179.97914	-512.67639	611.03711	158.08368	-529.11847	409.41412	822.75043	-765.82654	1020.44574	290.97104	-499.28754	729.64825				182.83522	-589.01300	724.99933	370.86838	-425.38641	715.03772	499.87210	-364.83148	739.25354				428.53513	-327.08252	639.90796	
147	0.487	579.37231	-624.11420	918.10846				498.04169	-499.32504	874.64441	896.54889	-725.06732	1114.78943	432.04623	-312.78720	455.62473	180.00685	-512.68903	611.01495	158.08275	-529.10986	409.39859	822.75580	-765.82898	1020.43262	290.97491	-499.28674	729.64154				182.85785	-589.03131	725.00934	370.86383	-425.39478	715.03723	499.85797	-364.81967	739.24774				428.52405	-327.09454	639.89435	
148	0.490	579.39191	-624.10992	918.11298				498.03372	-499.34070	874.65216	896.42334	-724.97699	1114.75586	432.04166	-312.77795	455.62463	180.01134	-512.68597	611.02502	158.09119	-529.12976	409.40726	822.70892	-765.83588	1020.42975	290.96561	-499.28159	729.65216				182.84349	-589.03888	725.00385	370.87360	-425.40652	715.04279	499.85132	-364.82605	739.24005				428.52786	-327.09021	639.89954	
149	0.493	579.37115	-624.07953	918.11914	863.26050	-848.09229	1270.08911	498.03787	-499.33380	874.62982	896.59497	-725.15723	1114.78613	432.03510	-312.76123	455.61157	179.98819	-512.67560	611.02985	158.08238	-529.12335	409.42209	822.70239	-765.85840	1020.43835	290.22467	-498.71011	730.13251				182.84787	-589.02460	725.01385	370.85419	-425.39532	715.02753	499.83530	-364.82541	739.22632				428.50644	-327.09354	639.89764	
150	0.497	579.36334	-624.08722	918.11176				498.02710	-499.32019	874.62604	896.55566	-725.09290	1114.78552	432.00983	-312.76855	455.63657	180.00935	-512.68683	611.01959	158.08730	-529.12488	409.40942	822.67920	-765.83221	1020.44318	290.23010	-498.70752	730.14709				182.85484	-589.02063	725.01019	370.86298	-425.39728	715.02863	499.83060	-364.80627	739.24744				428.50342	-327.07758	639.89191	
151	0.500	579.37885	-624.07574	918.11359	863.08521	-847.92566	1269.96729	498.03796	-499.32178	874.64050	896.48682	-725.05457	1114.73438	432.02182	-312.77979	455.63287	179.99338	-512.68500	611.02539	158.08360	-529.13788	409.39963	822.66064	-765.86609	1020.41516	290.21548	-498.69931	730.13300				182.87555	-589.01660	725.00861	370.85190	-425.38986	715.02252	499.83484	-364.80588	739.24243				428.50479	-327.07394	639.88983	
152	0.503	579.37054	-624.05505	918.11237	863.22119	-848.14606	1269.99316	498.05347	-499.31558	874.61865	896.47858	-725.09546	1114.73779	432.01657	-312.76672	455.62653	180.01990	-512.70648	611.02618	158.08528	-529.13336	409.41031	822.59479	-765.80225	1020.40576	290.23572	-498.71170	730.14532				182.84935	-589.01532	725.01788	370.83719	-425.39963	715.03149	499.83716	-364.80002	739.24036				428.49753	-327.08167	639.88696	
153	0.507	579.38312	-624.06238	918.10577	863.22345	-848.16504	1269.94910	498.03827	-499.31680	874.63409	896.49933	-725.17004	1114.74048	432.01117	-312.77109	455.61978	180.00223	-512.69824	611.02228	158.07310	-529.13440	409.40735	822.61310	-765.79712	1020.37469	290.22864	-498.70135	730.12024				182.86804	-589.00885	724.99512	370.84161	-425.40442	715.02319	499.83044	-364.80432	739.24036				428.50739	-327.07333	639.89673	
154	0.510	579.40662	-624.07635	918.09796				498.03970	-499.31046	874.61536	896.48883	-725.16003	1114.71948	432.00354	-312.77707	455.62723	180.00763	-512.69049	611.02979	158.07605	-529.15009	409.40897	822.55212	-765.81824	1020.37555	291.00134	-499.27371	729.61591				182.86903	-589.02448	725.00983	370.84534	-425.38455	715.03174	499.82101	-364.79062	739.23041				428.48257	-327.09390	639.87256	
155	0.513	579.40271	-624.07599	918.11206	863.28809	-848.34198	1269.88489	498.03699	-499.29913	874.61328	896.43738	-725.09424	1114.71069	431.98563	-312.75287	455.61105	179.98785	-512.66846	611.03333	158.07980	-529.13409	409.42651	822.54755	-765.86560	1020.38696	290.24576	-498.71915	730.14404				182.85895	-589.02966	725.01300	370.85583	-425.40616	715.02313	499.81976	-364.80716	739.23724				428.46121	-327.07687	639.88885	
156	0.517	579.38220	-624.05298	918.11316				498.04184	-499.31348	874.61926	896.42120	-725.11713	1114.69067	431.97443	-312.74295	455.62180	180.00018	-512.66919	611.01349	158.06837	-529.12183	409.40936	822.56818	-765.85321	1020.38666	290.22833	-498.70319	730.11157				182.87210	-589.01813	725.01202	370.82758	-425.39838	715.03540	499.83347	-364.80646	739.23102				428.45816	-327.07162	639.88763	
157	0.520	579.40735	-624.03870	918.10168				498.03223	-499.30811	874.62811	896.43219	-725.17712	1114.70874	431.96658	-312.75522	455.63681	179.99710	-512.67993	611.01166	158.07155	-529.13995	409.42911	822.56696	-765.86707	1020.37036	290.21722	-498.69522	730.12640				182.86890	-589.01074	725.01111	370.82614	-425.40192	715.01447	499.82767	-364.81290	739.23779				428.47382	-327.05499	639.90143	
158	0.523	579.40302	-624.04980	918.11975				498.05637	-499.27927	874.62231	896.46918	-725.19971	1114.71582	431.97781	-312.73831	455.61557	179.98239	-512.66956	611.02716	158.07312	-529.14923	409.42380	822.57074	-765.87061	1020.36005	290.22321	-498.69440	730.12585				182.87305	-589.00610	725.03009	370.84616	-425.41174	715.01776	499.82596	-364.81061	739.23059				428.45618	-327.07224	639.88458	
159	0.527	579.42810	-624.04816	918.11957	863.05359	-848.27618	1269.81287	498.03293	-499.29367	874.61957	896.42133	-725.15448	1114.66626	431.93896	-312.71857	455.61414	180.01726	-512.69336	611.02875	158.07018	-529.15881	409.42322	822.54059	-765.88519	1020.33557	290.21588	-498.68369	730.12439				182.86395	-589.02740	725.04694	370.82925	-425.39511	715.03534	499.80710	-364.80368	739.23395				428.45761	-327.07718	639.89105	
160	0.530	579.43073	-624.03131	918.10461	863.22192	-848.41272	1269.81726	498.06021	-499.28842	874.61963	896.42731	-725.18732	1114.69617	431.94376	-312.73569	455.62604	179.99854	-512.70667	611.03229	158.07486	-529.16663	409.40170	822.52795	-765.89825	1020.33948	290.99966	-499.28680	729.60199				182.85370	-589.03296	725.03583	370.85251	-425.39932	715.02991	499.81821	-364.80389	739.24207				428.46310	-327.07706	639.89429	
161	0.533	579.42224	-624.01361	918.11639	863.07642	-848.21808	1269.78235	498.04056	-499.29700	874.62024	896.43164	-725.22144	1114.69092	431.94647	-312.73010	455.62695	180.00464	-512.68787	611.02972	158.05913	-529.14795	409.42169	822.46875	-765.82642	1020.33289	290.21890	-498.70477	730.12354				182.88782	-589.03540	725.02753	370.83990	-425.40677	715.03003	499.80774	-364.81296	739.25232				428.44763	-327.08597	639.90216	
162	0.537	579.41016	-624.03705	918.08441	863.27325	-848.53217	1269.80237	498.05533	-499.31821	874.60492	896.43774	-725.28009	1114.69324	431.93243	-312.73398	455.65536	179.99957	-512.68317	611.04053	158.04832	-529.14471	409.43802	822.48389	-765.89386	1020.32007	290.22598	-498.69385	730.12097				182.86104	-589.02496	725.05475	370.85175	-425.40216	715.02582	499.82169	-364.80725	739.24170				428.44418	-327.07730	639.88940	
163	0.540	579.40143	-624.03156	918.12250	863.08167	-848.30835	1269.76184	498.04095	-499.29391	874.62885	896.39215	-725.23602	1114.65808	431.92670	-312.72925	455.64661	179.99777	-512.70007	611.03119	158.04202	-529.14050	409.43427	822.46881	-765.87970	1020.30798	290.24240	-498.69296	730.12848				182.86508	-589.03601	725.06396	370.82520	-425.39728	715.02985	499.82571	-364.81168	739.24500				428.46167	-327.07193	639.89862	
164	0.543	579.39050	-624.04163	918.13470	863.10840	-848.31512	1269.75110	498.04990	-499.31802	874.61218	896.39606	-725.24408	1114.62170	431.94632	-312.71469	455.63077	180.00598	-512.69708	611.04462	158.03340	-529.13391	409.45761	822.44702	-765.86102	1020.30066	290.23383	-498.71671	730.12335				182.87041	-589.01782	725.05090	370.84607	-425.40228	715.03143	499.80548	-364.80627	739.23590				428.45581	-327.08435	639.89264	
165	0.547	579.40997	-624.03961	918.12488	863.13879	-848.39471	1269.77759	498.05908	-499.32288	874.63098	896.45972	-725.33563	1114.64685	431.91360	-312.69446	455.64340	180.00230	-512.68787	611.05066	158.04634	-529.16229	409.44919	822.45361	-765.92737	1020.28625	290.21237	-498.69394	730.13208				182.86314	-589.03870	725.07587	370.85568	-425.41064	715.04059	499.82010	-364.81311	739.24243				428.45493	-327.06656	639.90430	
166	0.550	579.40338	-624.03284	918.11755	863.01904	-848.28839	1269.72253	498.05267	-499.31693	874.62354	896.38733	-725.24231	1114.63599	431.91992	-312.71948	455.66010	179.98683	-512.69385	611.04456	158.03641	-529.14801	409.45587	822.42950	-765.91376	1020.30511	290.20978	-498.70590	730.12897				182.87173	-589.03625	725.07233	370.84512	-425.41327	715.05780	499.82916	-364.82584	739.24548				428.44171	-327.07968	639.90778	
167	0.553	579.43152	-624.05841	918.12604	863.06335	-848.50360	1269.69263	498.04160	-499.32022	874.63086	896.46832	-725.32813	1114.62244	431.93280	-312.70068	455.66052	180.01547	-512.69873	611.04578	158.04427	-529.16296	409.46002	822.42358	-765.90228	1020.29028	290.23895	-498.71725	730.13800				182.88547	-589.03784	725.06061	370.83884	-425.40689	715.04736	499.81937	-364.83136	739.24762				428.45786	-327.07642	639.93524	
168	0.557	579.41656	-624.04968	918.12848	863.26788	-848.75946	1269.74353	498.07220	-499.33307	874.61646	896.36603	-725.31708	1114.60193	431.89304	-312.69922	455.67050	179.99471	-512.69110	611.07898	158.03003	-529.16718	409.46115	822.35388	-765.88861	1020.28265	290.23373	-498.70569	730.15137				182.88248	-589.03510	725.07898	370.85522	-425.42621	715.05029	499.82465	-364.82068	739.24329				428.45642	-327.06958	639.91437	
169	0.560	579.42822	-624.08588	918.12311	863.12311	-848.58130	1269.71985	498.06894	-499.33862	874.62604	896.41754	-725.34155	1114.63342	431.90662	-312.70306	455.67538	179.99300	-512.70905	611.06458	158.02817	-529.15137	409.46487	822.40430	-765.92914	1020.27307	290.23779	-498.69339	730.13556				182.85416	-589.03009	725.08496	370.84592	-425.42377	715.03162	499.82526	-364.82111	739.25452				428.44894	-327.07678	639.92822	
170	0.563	579.42719	-624.05444	918.12366	863.10553	-848.58875	1269.70251	498.05399	-499.33566	874.62610	896.31531	-725.30048	1114.62500	431.91290	-312.70117	455.67047	180.01790	-512.71667	611.07086	158.01494	-529.16815	409.46747	822.36206	-765.89374	1020.25391	290.23621	-498.71713	730.15314				182.86382	-589.04376	725.07489	370.84198	-425.41025	715.05463	499.83820	-364.84314	739.27411				428.44022	-327.08527	639.93988	
171	0.567	579.42645	-624.06616	918.13672	863.11621	-848.59247	1269.69519	498.06326	-499.34052	874.63080	896.33325	-725.34485	1114.60693	431.90781	-312.71033	455.68481	179.98767	-512.72668	611.08984	158.01765	-529.15857	409.46552	822.36639	-765.92444	1020.28455	290.22769	-498.71750	730.16992				182.88313	-589.04938	725.06702	370.85309	-425.42694	715.04004	499.82855	-364.83685	739.26721				428.44913	-327.08649	639.93060	
